<svg width="96" height="96" viewBox="0 0 96 96" fill="none" xmlns="http://www.w3.org/2000/svg">
  <rect width="96" height="96" rx="22" fill="#050607"/>
  <rect x="6" y="6" width="84" height="84" rx="18" fill="url(#bg)" stroke="#36FFCB" stroke-opacity="0.35" stroke-width="2"/>
  <path d="M48 10 82 30v36L48 86 14 66V30L48 10Z" stroke="url(#mark)" stroke-width="5" stroke-linejoin="round"/>
  <path d="M24 57c11 20 37 20 48 0" stroke="url(#mark)" stroke-width="4" stroke-linecap="round"/>
  <path d="M24 39c11-20 37-20 48 0" stroke="url(#mark)" stroke-width="4" stroke-linecap="round" opacity="0.85"/>
  <path d="M31 57h12l7-20 7 30 6-16h10" stroke="#C6FF4A" stroke-width="5" stroke-linecap="round" stroke-linejoin="round"/>
  <circle cx="48" cy="48" r="8" fill="#C6FF4A"/>
  <circle cx="48" cy="48" r="15" stroke="#36FFCB" stroke-opacity="0.22" stroke-width="3"/>
  <defs>
    <linearGradient id="bg" x1="12" y1="8" x2="86" y2="90" gradientUnits="userSpaceOnUse">
      <stop stop-color="#36FFCB" stop-opacity="0.22"/>
      <stop offset="0.48" stop-color="#07110E" stop-opacity="0.88"/>
      <stop offset="1" stop-color="#FF4FD8" stop-opacity="0.18"/>
    </linearGradient>
    <linearGradient id="mark" x1="14" y1="10" x2="82" y2="86" gradientUnits="userSpaceOnUse">
      <stop stop-color="#36FFCB"/>
      <stop offset="0.5" stop-color="#C6FF4A"/>
      <stop offset="1" stop-color="#FF4FD8"/>
    </linearGradient>
  </defs>
</svg>
